<svg xmlns="http://www.w3.org/2000/svg" id="svg984" version="1.1" viewBox="0 0 16.933 16.933" height="64" width="64"><defs id="defs978"><style id="style986">.cls-1{fill:#fff}.cls-2{fill:#283277}</style></defs><g id="layer1"><g transform="translate(-143.718 -74.94) scale(.26458)" id="g1059"><g transform="translate(520.242 275.348) scale(.11987)" id="g1070"><path id="path992" d="M725.12 329.22c0-95.79-119.47-173.88-266.85-173.88-147.38 0-266.86 78.09-266.86 173.88v10.18c0 101.63 104.43 183.93 266.85 183.93 163.42 0 266.89-82.29 266.89-183.91z" class="cls-2"/><path id="path994" d="M714.91 329.13c0 90.31-114.88 163.52-256.59 163.52-141.71 0-256.6-73.21-256.6-163.52 0-90.31 114.88-163.52 256.6-163.52 141.72 0 256.59 73.21 256.59 163.52z" fill="#00b1ea"/><path id="path996" d="M204.7 384.89c12.36 26.46 24.72 39.11 24.72 39.11 5.44-10.49 5.85-16.08 11.79-18.25 8.64-3.15 11.89 1.33 40.23 5.1 44.89 6 64.38 7.71 142.44.77 56.59-5 18.63-65.69 5.68-98.17-12.95-32.48-26.49-61.32-34.14-77.8-7.65-16.48-17.07-32.81-30-46.72-12.93-13.91-35.31-36.29-41.79-41.57-6.48-5.28-17.65 3.53-21.77 7.07-4.12 3.54-28.9 14.67-20.9 25.6 0 0 3.83 6.62 7.06 8.9 3.23 2.28-18.24-6.55-18.24 6.11s19.72 10.59 25.31 12.95c5.59 2.36 11.18 2.35 17.36 5.59 6.18 3.24 16.33 7.36 24.35 7.06 8.02-.3 11-4.41 15.08 6.18s14.42 34.73 12.66 59.15c-1.76 24.42.39 57.38 5.1 69.44 0 0-94.47-44.42-171.57-29.41-.02 0-2.91 38.44 6.63 58.89z" class="cls-1"/><path id="path998" d="M230.61 431.88l-4.54-4.63c-.53-.54-13.08-13.49-25.63-40.37-9.95-21.33-7.2-59.65-7.08-61.27l.27-3.58 3.52-.69c64.62-12.59 139.68 15.07 165.41 25.81-3.21-16.52-4.1-42.58-2.73-61.55 1.57-21.78-6.91-43.3-11.47-54.86l-.88-2.26c-1.41-3.62-2.25-4.21-2.29-4.23a16.23 16.23 0 00-2.58.36 38.34 38.34 0 01-5.65.69c-10.58.41-23.12-5.72-26.71-7.6a37.2 37.2 0 00-9-3 48.47 48.47 0 01-8-2.42 32.32 32.32 0 00-5.56-1c-7.91-1-22.63-2.88-22.63-16.32a10.94 10.94 0 013.86-8.86 14.15 14.15 0 018.53-2.84c-.19-.3-.34-.56-.45-.75a11.94 11.94 0 01-2.1-9.38c1.71-8.66 12.66-15.36 19.91-19.79a47 47 0 004-2.57c14.74-12.62 23.26-10.85 27.82-7.13 6.73 5.49 29.51 28.32 42.25 42 11.68 12.54 21.48 27.77 30.85 47.94l1.4 3c7.7 16.58 20.6 44.32 32.84 75 1.9 4.76 4.38 10.22 7 16 11 24.2 24.71 54.31 13.79 73-5.24 9-15.47 14.22-30.43 15.56-78.47 7-98.14 5.24-143.49-.8a249.47 249.47 0 01-25.16-4.6c-7.39-1.69-9.27-2-12.83-.74-2.11.77-2.9 2.16-5.36 7.77-1 2.24-2.21 5-3.86 8.22zM209 382.9a172.38 172.38 0 0019.35 32.43c.19-.41.36-.81.54-1.21 2.6-5.92 4.65-10.6 10.75-12.83 6.3-2.3 10.51-1.33 18.16.41a238.92 238.92 0 0024.3 4.45c44.57 5.93 63.93 7.63 141.41.74 11.9-1.05 19.47-4.63 23.14-10.92 8.46-14.52-4.12-42.18-14.23-64.4-2.68-5.89-5.21-11.45-7.19-16.42-12.14-30.45-25-58-32.63-74.53l-1.41-3c-8.93-19.24-18.21-33.7-29.19-45.49-13.43-14.43-35.44-36.34-41.32-41.13-2.33-1.9-8.65.91-15.74 7a46.8 46.8 0 01-5.19 3.45c-4.77 2.91-14.68 9-15.59 13.58a2.56 2.56 0 00.62 2.22l.27.42c1.34 2.32 4.08 6.28 5.7 7.42a4.86 4.86 0 011.94 6c-1.56 3.64-5.31 2.9-7.33 2.5-5.69-1.14-9.2-1.2-10.44-.18a2.12 2.12 0 00-.42 1.59c0 3.95 3.37 5.58 14.41 7a33 33 0 018 1.63 42.24 42.24 0 006.57 1.95 45.51 45.51 0 0111.15 3.81c6.33 3.32 15.45 6.76 22 6.53a30.37 30.37 0 004.34-.55c5.89-1 11.11-1 15.3 9.72l.87 2.22c4.48 11.38 13.82 35.07 12.09 59-1.76 24.34.52 56.46 4.79 67.39l4.28 11-10.66-5c-.92-.43-91.06-42.22-165.08-29.71-.42 9.84-.84 37.41 6.42 53z" class="cls-2"/><path id="path1000" d="M279.05 192.68a44.41 44.41 0 0115.48 3.87c4.55 2.19 6.72 4.6 11.13 2.78.64-.27 1.3-.51 2-.74 10.17-3.69 10.17-3.69 17.39 4.35 5.85 6.52 10.52 7.91 15.06 5.39-5.77-5.66-12.15-11.2-17.63-17.5-6.8-7.8-6.56-9.65-1-17.73l-.81-1.2c-1.88 1.44-3.79 2.84-5.63 4.34-1.21 1-2.31 2.14-3.46 3.22-1.28-1.5-3-2.83-3.72-4.56-.83-2-.76-4.35-2.28-6.62-.35 3.65-.69 7.3-1.07 11.31l-6 .7 5.26 2.2c-.18 1.15-.38 2.39-.61 3.8 6.12-4.13 9.75-6.48 12.11 3.84-4.54 1.38-8.08 2-12.75 3.1-3.22.74-12.77-9.22-15.13-11.47" class="cls-2"/><path id="path1002" d="M707.67 384.89C695.32 411.35 683 424 683 424c-5.44-10.49-5.85-16.08-11.79-18.25-8.64-3.15-11.89 1.33-40.22 5.1-44.9 6-64.39 7.71-142.45.77-56.59-5-18.62-65.69-5.68-98.17 12.94-32.48 26.49-61.32 34.14-77.8 7.65-16.48 17-32.85 30-46.76 13-13.91 35.31-36.29 41.79-41.57 6.48-5.28 17.66 3.53 21.78 7.07 4.12 3.54 28.89 14.67 20.89 25.6 0 0-3.82 6.62-7.06 8.9-3.24 2.28 18.24-6.55 18.24 6.11s-19.74 10.59-25.33 13-11.19 2.35-17.37 5.59c-6.18 3.24-16.33 7.36-24.35 7.06-8.02-.3-11-4.41-15.08 6.18s-14.42 34.73-12.66 59.15c1.76 24.42-.39 57.38-5.1 69.44 0 0 100.45-45.3 177.55-30.3 0-.05-3.08 39.32-12.63 59.77z" class="cls-1"/><path id="path1004" d="M681.76 431.88l-3-5.76c-1.65-3.19-2.88-6-3.86-8.22-2.46-5.61-3.25-7-5.36-7.77-3.56-1.3-5.44-.95-12.83.74a248.91 248.91 0 01-25.16 4.6c-45.34 6-65 7.77-143.49.8-14.95-1.34-25.19-6.57-30.43-15.56-10.91-18.73 2.79-48.84 13.79-73 2.63-5.79 5.12-11.25 7-16 12.24-30.71 25.13-58.46 32.84-75l1.4-3c9.36-20.17 19.16-35.4 30.84-47.94 12.74-13.69 35.52-36.52 42.26-42 4.55-3.72 13.07-5.5 27.81 7.13.54.47 2.37 1.59 4 2.57 7.25 4.43 18.21 11.13 19.91 19.79a11.9 11.9 0 01-2.1 9.38c-.11.19-.26.45-.45.75a14.15 14.15 0 018.53 2.84 10.94 10.94 0 013.86 8.86c0 13.44-14.72 15.31-22.63 16.32a32.32 32.32 0 00-5.56 1 48.65 48.65 0 01-8 2.42 37.42 37.42 0 00-9 3c-3.59 1.89-16.12 8-26.7 7.6a38.5 38.5 0 01-5.66-.69 12.42 12.42 0 00-2.67-.32s-.81.61-2.2 4.2l-.88 2.25c-4.56 11.56-13 33.08-11.47 54.85 1.38 19 .48 45.21-2.76 61.73a475.85 475.85 0 0151.6-17.26c58.31-15.86 97.34-14 119.82-9.6l4.12.8-.33 4.18c-.13 1.64-3.26 40.45-13.06 61.44-12.55 26.88-25.1 39.83-25.62 40.37zm-16.22-31.94a20.49 20.49 0 017.23 1.35c6.1 2.23 8.16 6.91 10.75 12.83l.54 1.21a172.38 172.38 0 0019.35-32.43c7.28-15.61 10.72-43.4 11.8-54-74.21-12.13-169.55 30.32-170.52 30.76l-10.5 4.73 4.18-10.73c4.27-10.93 6.55-43.05 4.79-67.39-1.73-23.91 7.61-47.6 12.1-59l.86-2.21c4.19-10.78 9.41-10.78 15.3-9.73a30.37 30.37 0 004.34.55c6.55.23 15.67-3.21 22-6.53a45.57 45.57 0 0111.16-3.81 42.44 42.44 0 006.56-1.95 33.07 33.07 0 018-1.63c11-1.4 14.4-3 14.4-7a2.12 2.12 0 00-.42-1.59c-1.24-1-4.75-1-10.44.18-2 .4-5.77 1.14-7.33-2.5a4.88 4.88 0 011.94-6c1.62-1.14 4.36-5.1 5.7-7.42l.28-.42a2.59 2.59 0 00.62-2.22c-.91-4.61-10.83-10.67-15.59-13.58a44.93 44.93 0 01-5.19-3.45c-7.09-6.08-13.42-8.89-15.75-7-5.87 4.79-27.89 26.7-41.32 41.13-11 11.8-20.26 26.25-29.19 45.49l-1.4 3c-7.66 16.49-20.49 44.09-32.64 74.55-2 5-4.51 10.53-7.18 16.42-10.11 22.22-22.7 49.88-14.23 64.4 3.66 6.29 11.23 9.87 23.13 10.92 77.49 6.9 96.84 5.19 141.42-.74a239.48 239.48 0 0024.3-4.45c4.47-.99 7.75-1.74 10.95-1.74z" class="cls-2"/><path id="path1006" d="M633.32 192.68a44.41 44.41 0 00-15.48 3.87c-4.55 2.19-6.72 4.6-11.12 2.78-.65-.27-1.31-.51-2-.74-10.17-3.69-10.17-3.69-17.38 4.35-5.86 6.52-10.53 7.91-15.07 5.39 5.77-5.66 12.15-11.2 17.64-17.5 6.79-7.8 6.56-9.65 1-17.73l.81-1.2c1.88 1.44 3.8 2.84 5.63 4.34 1.22 1 2.31 2.14 3.47 3.22 1.27-1.5 3-2.83 3.71-4.56.83-2 .77-4.35 2.29-6.62.34 3.65.68 7.3 1.06 11.31l6 .7-5.26 2.2c.19 1.15.39 2.39.62 3.8-6.12-4.13-9.76-6.48-12.12 3.84 4.55 1.38 8.09 2 12.75 3.1 3.23.74 12.77-9.22 15.13-11.47" class="cls-2"/><path id="path1008" d="M679.73 246.44c22.36 24.27 35.18 52.53 35.18 82.69 0 90.31-114.88 163.52-256.59 163.52-141.71 0-256.6-73.21-256.6-163.52 0-19.09 5.14-37.42 14.57-54.45l-11.85.82a119.43 119.43 0 00-13 53.72v10.18c0 101.63 104.43 183.93 266.85 183.93 163.42 0 266.9-82.29 266.9-183.91v-10.2c0-29.93-11.67-58.14-32.21-82.77z" class="cls-2"/></g></g></g></svg>